# xmcd
#
# Track frame offsets: 
#        150
#        2031
#        10713
#        30873
#        46442
#        59880
#        72782
#        88802
#        104361
#        121249
#        133733
#        161626
#        181559
#        194783
#        214960
#        227682
#        239550
#        258847
#        279048
#        301645
#
# Disc length: 4159 seconds
#
# Revision: 0
# Processed by: cddbd v1.5.2PL0 Copyright (c) Steve Scherf et al.
# Submitted via: ExactAudioCopy v0.99pb3
#
DISCID=0c103d14
DTITLE=Various Artist - Light In The Attic Records Sampler 3.0
DYEAR=2007
DGENRE=Funk
TTITLE0=01~Infro
TTITLE1=02~Wheedle's Groove 2007 feat Ural Thomas~Pulse
TTITLE2=03~The Black Angels~Black Grease
TTITLE3=04~Nicole Willis and The Soul Investigators~If This Ain't Love
TTITLE3=(Don't Know What It Is)
TTITLE4=05~The Free Design~Don't Cry Baby
TTITLE5=06~Jackie Mittoo~(Innocent Youths) Soul Bird
TTITLE6=07~Betty Davis~Shoo-B-Doop and Cop Him
TTITLE7=08~Deep Throat Original Soundtrack~She's Got To Have It
TTITLE8=09~Karen Dalton~Something On Your Mind
TTITLE9=10~The Saturday Knights~45
TTITLE10=11~Noel Ellis~To Hail Salassie
TTITLE11=12~The Black Angles~Nine Years
TTITLE12=13~Wayne McGhie~Here We Go Again
TTITLE13=14~Styrofoam and Sarah Shannon~(Hey Jude) I Found Love
TTITLE14=15~Black On White Affair~Bold Soul Sister, Bold Soul Brother
TTITLE15=16~The Saturday Knights~Ass Kicker's Haircut
TTITLE16=17~Betty Davis~Anti Love Song
TTITLE17=18~Bernard Purdie~All Pink On The Inside
TTITLE18=19~The Cougars~I Wish It Would Rain
TTITLE19=20~Karen Dalton~Katie Cruel
EXTD=
EXTT0=
EXTT1=
EXTT2=
EXTT3=
EXTT4=
EXTT5=
EXTT6=
EXTT7=
EXTT8=
EXTT9=
EXTT10=
EXTT11=
EXTT12=
EXTT13=
EXTT14=
EXTT15=
EXTT16=
EXTT17=
EXTT18=
EXTT19=
PLAYORDER=
